<?xml version="1.1" standalone="no"?>
<!DOCTYPE svg PUBLIC "-//W3C//DTD SVG 20010904//EN"
 "http://www.w3.org/TR/2001/REC-SVG-20010904/DTD/svg10.dtd">
<svg version="1.1" xmlns="http://www.w3.org/2000/svg"
 width="983.000000pt" height="1280.000000pt" viewBox="0 0 983.000000 1280.000000"
 preserveAspectRatio="xMidYMid meet">
<metadata>
Created by potrace 1.15, written by Peter Selinger 2001-2017
</metadata>
<g transform="translate(0.000000,1280.000000) scale(0.100000,-0.100000)"
>
<path fill="#f7ad00" d="M4745 12794 c-193 -28 -248 -39 -320 -63 -170 -57 -221 -104 -254
-235 -12 -48 -213 -878 -447 -1844 -234 -966 -511 -2110 -615 -2542 -272
-1121 -529 -2184 -770 -3180 -115 -476 -232 -960 -260 -1075 l-51 -211 -822
-363 c-1020 -452 -1028 -456 -1100 -522 -90 -82 -99 -106 -103 -289 -4 -181
11 -268 63 -372 48 -96 118 -161 228 -214 240 -114 4040 -1793 4101 -1812 313
-95 727 -95 1040 0 61 19 3861 1698 4101 1812 113 54 179 117 229 218 52 107
65 187 62 370 -3 132 -7 159 -25 194 -27 53 -113 131 -188 171 -32 17 -448
203 -924 413 -476 211 -869 386 -874 391 -5 4 -35 115 -67 246 -31 131 -135
553 -229 938 -94 385 -198 808 -230 940 -32 132 -163 665 -290 1185 -127 520
-335 1368 -461 1885 -127 517 -331 1352 -454 1855 -123 503 -278 1134 -343
1402 -97 396 -124 494 -145 521 -49 65 -205 130 -392 163 -86 15 -397 27 -460
18z"/>
</g>
</svg>
