<?xml version="1.0" encoding="UTF-8" standalone="no"?>
<svg
   xmlns:dc="http://purl.org/dc/elements/1.1/"
   xmlns:cc="http://creativecommons.org/ns#"
   xmlns:rdf="http://www.w3.org/1999/02/22-rdf-syntax-ns#"
   xmlns:svg="http://www.w3.org/2000/svg"
   xmlns="http://www.w3.org/2000/svg"
   xmlns:sodipodi="http://sodipodi.sourceforge.net/DTD/sodipodi-0.dtd"
   xmlns:inkscape="http://www.inkscape.org/namespaces/inkscape"
   version="1.0"
   width="895.000000pt"
   height="1024.000000pt"
   viewBox="0 0 895.000000 1024.000000"
   preserveAspectRatio="xMidYMid meet"
   id="svg831"
   sodipodi:docname="gear.svg"
   inkscape:version="0.92.4 (5da689c313, 2019-01-14)">
  <metadata
     id="metadata837">
    <rdf:RDF>
      <cc:Work
         rdf:about="">
        <dc:format>image/svg+xml</dc:format>
        <dc:type
           rdf:resource="http://purl.org/dc/dcmitype/StillImage" />
        <dc:title></dc:title>
      </cc:Work>
    </rdf:RDF>
  </metadata>
  <defs
     id="defs835" />
  <sodipodi:namedview
     pagecolor="#ffffff"
     bordercolor="#666666"
     borderopacity="1"
     objecttolerance="10"
     gridtolerance="10"
     guidetolerance="10"
     inkscape:pageopacity="0"
     inkscape:pageshadow="2"
     inkscape:window-width="1920"
     inkscape:window-height="1001"
     id="namedview833"
     showgrid="false"
     inkscape:zoom="0.29589844"
     inkscape:cx="-154.83385"
     inkscape:cy="574.44818"
     inkscape:window-x="-9"
     inkscape:window-y="-9"
     inkscape:window-maximized="1"
     inkscape:current-layer="svg831" />
  <g
     transform="translate(0.000000,1024.000000) scale(0.100000,-0.100000)"
     fill="#000000"
     stroke="none"
     id="g829"
     style="fill:#efae04;fill-opacity:1">
    <path
       d="M4886 9148 c-15 -13 -57 -81 -95 -153 -240 -454 -311 -583 -337 -611 l-29 -31 -162 -7 c-145 -6 -167 -5 -197 11 -34 18 -63 55 -231 298 -39 55 -93 134 -122 175 -28 41 -78 113 -109 159 -68 98 -90 115 -141 109 -21 -3 -198 -59 -393 -126 -294 -100 -359 -125 -379 -148 -28 -33 -28 -20 15 -561 l26 -323 -23 -39 c-12 -22 -27 -42 -34 -45 -6 -2 -59 -38 -117 -79 -127 -90 -158 -107 -198 -107 -16 0 -139 46 -273 101 -367 153 -478 199 -521 215 -62 23 -92 7 -168 -89 -36 -45 -142 -178 -236 -295 -94 -116 -176 -221 -182 -231 -21 -40 -9 -66 93 -200 56 -75 171 -227 256 -338 185 -244 182 -235 121 -385 -23 -57 -48 -116 -55 -133 -7 -16 -24 -55 -38 -86 -14 -31 -37 -65 -54 -77 -23 -16 -120 -37 -444 -96 -228 -41 -422 -78 -431 -81 -43 -17 -48 -38 -88 -350 -17 -139 -43 -472 -38 -486 3 -9 79 -42 174 -77 465 -169 632 -230 651 -240 11 -6 28 -23 38 -38 17 -26 78 -323 91 -439 9 -82 37 -50 -448 -503 -146 -135 -198 -191 -203 -213 -8 -34 4 -60 208 -451 118 -226 148 -268 192 -268 12 0 163 32 336 71 512 117 487 112 535 94 53 -20 342 -324 363 -383 16 -42 14 -51 -123 -584 -68 -264 -73 -296 -56 -328 9 -16 113 -79 308 -187 40 -22 183 -102 310 -174 68 -39 61 -44 399 294 l313 312 68 -1 c72 0 414 -74 463 -100 15 -7 35 -24 44 -36 8 -13 69 -186 135 -386 66 -200 127 -379 134 -397 21 -48 60 -65 153 -65 207 1 634 43 671 66 32 21 38 38 73 204 16 80 39 186 50 237 10 50 35 167 54 260 20 96 43 179 53 193 21 28 57 48 152 83 36 13 115 43 175 66 84 33 120 41 152 38 42 -4 65 -22 596 -450 111 -89 135 -99 180 -75 12 6 87 61 167 121 473 360 450 340 450 390 0 14 -37 121 -81 239 -45 117 -92 240 -104 273 -135 358 -132 341 -73 424 138 195 202 274 234 287 31 13 56 13 222 -6 103 -11 230 -25 282 -30 52 -6 155 -17 228 -25 116 -13 138 -13 161 0 40 20 42 25 104 195 146 404 169 468 188 514 40 101 59 81 -396 416 -305 224 -310 229 -324 277 -14 47 7 332 28 372 15 30 56 54 392 225 207 105 383 197 392 204 25 21 30 69 13 140 -8 37 -43 198 -77 357 -34 160 -68 308 -75 331 -24 69 -28 70 -494 100 -305 19 -424 30 -447 41 -35 16 -70 67 -142 209 -26 52 -41 94 -41 118 0 30 30 88 161 309 89 150 186 313 215 362 88 147 104 115 -232 460 -157 161 -293 296 -301 299 -45 18 -84 2 -357 -150 -154 -86 -320 -179 -369 -206 -79 -46 -92 -50 -135 -46 -30 4 -72 20 -117 45 -38 22 -90 52 -115 65 -32 18 -51 38 -67 69 -21 41 -23 66 -33 377 -14 462 -18 509 -44 539 -22 25 -44 31 -421 121 -71 17 -187 45 -256 62 -151 36 -161 36 -193 8z m-116 -1676 c257 -48 440 -107 655 -212 534 -261 950 -706 1168 -1250 124 -309 172 -562 171 -905 0 -398 -75 -718 -249 -1067 -232 -463 -601 -832 -1062 -1063 -256 -127 -498 -202 -780 -240 -42 -5 -42 -5 -52 32 -29 108 -62 307 -72 425 -14 163 -5 473 16 583 47 244 124 388 304 565 214 210 426 315 708 350 78 10 129 22 362 85 52 14 103 23 113 19 29 -9 36 -40 44 -198 4 -81 11 -149 16 -152 28 -17 190 130 259 235 97 146 102 251 20 416 -82 165 -336 426 -546 560 -37 24 -54 43 -64 71 -34 99 -184 293 -297 385 -172 140 -295 199 -534 255 -101 23 -594 30 -715 9 -476 -81 -800 -243 -1175 -588 -122 -112 -309 -312 -387 -412 -214 -276 -346 -519 -543 -992 -16 -38 -26 -27 -48 50 -72 248 -82 331 -82 684 0 296 1 305 30 453 130 653 505 1203 1070 1565 41 27 145 83 230 124 243 120 459 185 745 227 144 20 550 12 695 -14z m35 -1712 c28 -6 102 -26 165 -45 167 -49 243 -65 314 -65 74 0 126 -9 126 -21 0 -27 -241 -139 -298 -139 -81 0 -236 60 -362 138 -121 75 -174 131 -137 145 19 7 137 -1 192 -13z"
       id="path827"
       style="fill:#efae04;fill-opacity:1" />
  </g>
</svg>
